<?xml version="1.0" ?><svg id="Layer_1" style="enable-background:new 0 0 512 512;" version="1.1" viewBox="0 0 512 512" xml:space="preserve" xmlns="http://www.w3.org/2000/svg" xmlns:xlink="http://www.w3.org/1999/xlink"><style type="text/css">
	.st0{fill:#333333;}
	.st1{fill:#4D4D4D;}
</style><g><path class="st0" d="M163.7,460c-56.7,0-111.8-16-159.4-46.2c-2.4-1.5-3.4-4.5-2.4-7.2s3.7-4.3,6.5-3.8   c63.4,9.4,113.2-18.3,134.5-33c-33.9-6.3-54.5-23.9-66.1-38.4c-14.4-18-18.6-35.2-18.8-35.9c-0.5-2,0.1-4,1.5-5.5   c1.4-1.5,3.4-2.1,5.4-1.8c6.7,1.1,12.7,1.6,18,1.6c-31-13.8-45.9-36.1-53.1-54c-9.6-23.9-7.8-45-7.7-45.9c0.2-2.1,1.4-3.9,3.3-4.8   c1.8-0.9,4-0.9,5.8,0.2c7.9,4.7,16.3,7.6,23.5,9.4c-29.9-32.5-34.3-63.8-32.2-85.3c2.6-26.7,15.3-44.3,15.9-45   c1.1-1.5,2.8-2.4,4.7-2.5c1.8-0.1,3.6,0.7,4.8,2.2c70.3,85.1,170.1,100.8,198.5,103.7c-0.9-5.5-1.3-11.1-1.3-16.7   c0-59.8,48.7-108.5,108.5-108.5c28.7,0,56.4,11.5,76.7,31.7c3.7-1.1,7.5-2.3,11.3-3.6c28.2-9.4,48.6-20.2,48.8-20.3   c2-1.1,4.5-0.9,6.3,0.4c1.9,1.3,2.8,3.6,2.4,5.9c-3.1,18.6-16.8,35-28.7,46.1c17.4-4.2,31.8-9.8,33.9-10.7l0.1,0   c2.3-0.9,4.9-0.3,6.6,1.5c1.7,1.8,2.1,4.5,1,6.7c-8.6,18.1-39.5,43.8-50.1,52.4c0.1,3,0.1,6.1,0.1,9.2c0,79.7-31,154.6-87.4,210.9   C318.3,429,243.4,460,163.7,460z M33.5,416.8c40.1,20.5,84.6,31.3,130.2,31.3C321.5,448,450,319.6,450,161.8c0-4-0.1-8-0.2-11.8   c-0.1-1.9,0.8-3.8,2.3-5c10.6-8.3,27.3-22.6,38.6-35.4c-11.3,3.6-26.4,7.5-41.5,9c0,0-0.1,0-0.1,0c-3,0.3-5.8-1.7-6.5-4.6   c-0.6-2.5,0.4-5,2.5-6.4c0.1,0,0.1-0.1,0.2-0.1c0.3-0.2,26.8-18,37.8-40.3c-9,4.1-22.2,9.7-37.8,14.9c-5.3,1.7-10.4,3.3-15.3,4.7   c-2.2,0.6-4.5,0-6-1.7c-18.5-19.7-43.5-30.5-70.5-30.5c-53.2,0-96.5,43.3-96.5,96.5c0,7.4,0.8,14.7,2.5,21.9c0.4,1.8,0,3.7-1.2,5.2   c-1.2,1.4-3,2.2-4.9,2.2c-3.6-0.2-36.7-1.9-79.1-16.4c-52.3-17.9-96-46.7-130.2-85.7c-3.5,6.8-8.4,18.4-9.7,32.9   c-2.9,31.4,11.3,61,42,88c1.9,1.7,2.6,4.4,1.6,6.7s-3.3,3.9-5.8,3.8c-0.9,0-19.2-0.9-38-9.3c0.5,7.7,2.1,19.2,7,31.5   c11.5,28.2,34.8,46.5,69.4,54.6c2.6,0.6,4.4,2.8,4.6,5.4s-1.4,5.1-3.9,6c-0.7,0.3-15.2,5.6-38.5,3.5c2.5,6,6.8,14.4,13.8,23   c17.1,21.1,41.4,33.1,72.1,35.5c2.4,0.2,4.4,1.8,5.2,4s0.1,4.8-1.7,6.4c-0.7,0.6-16.5,14.8-43.6,27.4c-20,9.3-49.3,19.1-84.3,19.1   C33.9,416.8,33.7,416.8,33.5,416.8z"/></g><g><path class="st1" d="M499.2,344.5c1.6-74.3,13.6-148.7,6.3-222.7c-10.4,13.1-20.7,26.1-31.1,39.2c-1.8,2.2-3.6,4.6-4.2,7.4   c-0.9,4.4,1.5,8.8,3,13c6.9,18.6-1.6,39-10.1,57c-29.1,61.8-61.5,124.6-114.3,167.9c-6.8,5.6-14,10.8-21.4,15.7   c-36.9,24.1-80,38.6-123.8,43.3c-52.7,5.6-106.4-2.5-156.3-20.4c-9.2-3.3-18.4-7-26.5-12.4c-10.6-7-11.5-6.3-9.2,6.2   c3.6,19-1.7,38.4,0.7,57.4c0.3,2.5,0.8,5,2.6,6.8c2,2,5.1,2.4,8,2.6c64.6,5.3,129.5,4.4,194.3,3.5c36.5-0.5,73-1,109.5-1.5   c39.8-0.5,79.7-1.1,119.5-1.6c20.1-0.3,40.2-0.5,60.2-2.4C502.2,450.7,498,397.6,499.2,344.5z M417.4,397.2c3.2-1.2,6.8,0.5,8,3.7   c1.2,3.2-0.5,6.8-3.7,8c-3.2,1.2-6.8-0.5-8-3.7C412.5,402,414.2,398.4,417.4,397.2z M419.7,461.3c-7.2,2.6-15.1-1-17.8-8.2   c-2.6-7.2,1-15.1,8.2-17.8c7.2-2.6,15.1,1,17.8,8.2C430.5,450.7,426.9,458.7,419.7,461.3z M461.8,444.2c-9.9,3.7-21-1.4-24.6-11.4   c-3.7-9.9,1.4-21,11.4-24.6c9.9-3.7,21,1.4,24.6,11.4C476.8,429.5,471.7,440.5,461.8,444.2z"/></g><g><path class="st1" d="M509.7,7.9c-1.7-1.6-4.2-1.8-6.6-1.8c-8.7-0.2-17.4-0.5-26.1-0.7c-13.8-0.4-27.7-0.7-41.5-1.1   c-92.9-2.3-185.9-4-278.7,0.1C121.1,6,85.3,8.3,49.8,4.6C36,3.1,22.3,0.8,8.5,1.3C6.2,1.4,3.7,1.7,2.3,3.5C1.3,4.7,1.1,6.3,1,7.8   c-0.8,14,5.4,27.6,5.3,41.6C6.3,59.3,3,68.9,1.6,78.7C0.1,88.8,0.6,99,1.2,109.2c2.3,44.8,4.6,89.5,8.6,134.1   c1.4,15.9,3.1,31.9,3.8,47.8c0.9,20.9,0.2,41.9-2.1,62.7c0,0,0,0,0,0c-0.7,6.3-1.5,12.6-2.5,18.9c-0.4,2.6-0.8,5.3-1.3,7.9   c-2.9,16.6,6.8,14.4,21,13.4c14.6-1,29-3.1,43.3-6.5c16.2-3.8,32-9.1,47.1-15.8c-15.9-0.5-30.7-8.1-42.5-19.1   c-4.7-4.4-8.9-9.3-12.6-14.6c-3.2-4.6-6-9.3-8.5-14.2C47.9,309,42.9,292.8,38,276.7c4.8,1.1,9.5,2.2,14.3,3.3   c-30.6-28.1-45.7-72-38.8-113c5.1,1,9.9,3.5,13.6,7.1c-11.7-24-17.8-50.8-17.7-77.5c0-9.2,0.9-18.6,4.7-26.9   c3.9-8.3,11.3-15.4,20.3-16.9C46.1,51,57,58.4,66.4,65.3c44,32.2,90.7,62.8,142.5,79.1c5.9,1.9,11.9,3.5,17.9,5   c-2.3-12.8-1.5-26.1,2-38.6c3.8-13.7,10.9-26.5,20.8-36.7c13.4-13.9,31-23,48.7-30.7c17.7-7.7,36.1-14.5,55.3-16.1   c19.2-1.6,39.5,2.3,54.7,14.2c7.1,5.6,14.5,13.1,22.4,16.8c4.5,2.1,9.3,2.9,14.2,1.2c4.3-1.5,7.8-4.7,11.4-7.5   c9.2-6.9,20.4-10.9,31.8-11.4c4.5-0.2,9.3,0.2,12.8,3c6.8,5.4,5,16.3,0.5,23.8c-4.5,7.4-11,14-12.5,22.5   c14.4-2.2,18.7-20.5,19.7-35c0.9-13.1,1.8-26.2,2.7-39.3C511.6,12.9,511.6,9.8,509.7,7.9z M132,50c-1,2.1-3.4,3-5.5,2   c-2.1-1-3-3.4-2-5.5c1-2.1,3.4-3,5.5-2C132.1,45.4,133,47.9,132,50z M155.9,75.7c-2.2,4.7-7.6,6.7-12.3,4.5   c-4.6-2.1-6.7-7.6-4.5-12.3c2.1-4.7,7.6-6.7,12.3-4.5S158,71.1,155.9,75.7z"/></g></svg>